<?xml version="1.0" encoding="UTF-8"?>
<svg width="574px" height="123px" viewBox="0 0 574 123" version="1.1" xmlns="http://www.w3.org/2000/svg" xmlns:xlink="http://www.w3.org/1999/xlink">
    <!-- Generator: Sketch 47.1 (45422) - http://www.bohemiancoding.com/sketch -->
    <title>Logo PAWAME background white_2</title>
    <desc>Created with Sketch.</desc>
    <defs>
        <polygon id="path-1" points="0 314.695 841.89 314.695 841.89 0 0 0"></polygon>
    </defs>
    <g id="Page-1" stroke="none" stroke-width="1" fill="none" fill-rule="evenodd">
        <g id="Logo-PAWAME-background-white_2" transform="translate(-137.000000, -96.000000)">
            <path d="M470.6311,167.0235 C479.8351,165.8025 479.4571,158.6405 479.4471,156.7505 C479.4351,154.8465 479.3441,139.3055 479.3441,139.3055 C477.5511,139.3225 475.7121,139.3645 473.8071,139.3645 C460.9751,139.3645 452.6111,140.4235 449.6221,142.3205 C446.6321,144.2165 443.9891,149.1035 443.9311,155.0225 C443.7711,171.5785 464.5791,167.8255 470.6311,167.0235 Z M494.7061,114.9645 C495.3651,117.5995 495.9121,121.2665 495.8871,125.9295 C495.8871,125.9295 495.8751,156.9005 495.8751,159.2995 C495.8751,176.3955 485.5301,177.5135 479.4891,178.6085 C473.4461,179.7025 466.6441,180.2495 459.0861,180.2495 C453.5901,180.2495 448.9021,179.7265 445.0361,178.6575 C441.1571,177.6005 438.0001,175.9965 435.5631,173.8705 C433.1131,171.7445 431.3351,169.1095 430.2041,165.9505 C429.0841,162.7935 428.5251,159.1385 428.5251,154.9735 C428.5251,151.4165 428.9241,148.2085 429.7311,145.3365 C430.5401,142.4655 431.8081,139.9655 433.5611,137.8275 C435.3011,135.6765 437.7051,133.4995 440.4791,132.1245 C443.2411,130.7375 446.5871,129.7485 450.5061,129.1595 C454.9941,128.4595 459.6451,127.9945 464.4711,127.7435 C469.2821,127.4895 474.0411,127.6205 479.0781,127.4095 C479.0781,124.5875 478.7671,122.1255 478.1211,120.0115 C477.4871,117.8975 476.4661,116.1455 475.0741,114.7265 C473.6811,113.3105 471.8911,112.2655 469.7281,111.5575 C467.5531,110.8605 464.1091,110.3745 461.0131,110.4375 C450.7141,110.6505 434.9411,112.9505 432.8901,113.2855 L432.8901,100.3305 C436.7811,99.5965 440.9821,98.8995 445.4971,98.2285 C450.7051,97.4705 456.8231,96.9865 462.8021,97.0605 C465.7861,97.0985 469.8151,97.6065 472.5631,98.0175 C475.3101,98.4405 477.8831,99.0625 480.2591,99.9075 C482.6461,100.7415 484.8091,101.8345 486.7481,103.1525 C488.6751,104.4835 490.3301,106.1115 491.6721,108.0755 C493.0271,110.0285 494.0341,112.3155 494.7061,114.9645 Z" id="Fill-1" fill="#2EA948"></path>
            <path d="M152.8718,164.9625 C158.5818,167.1655 164.4258,168.2685 170.4038,168.2685 C176.1928,168.2685 181.5318,167.2445 186.1578,163.5915 C188.4728,161.7635 190.2378,158.9015 191.4498,155.0035 C194.6458,144.7345 194.1438,133.7245 191.1968,123.4635 C189.4738,117.4635 185.6498,113.0365 179.5328,111.1005 C177.3248,110.4015 174.7928,110.0525 171.9378,110.0525 C159.2258,110.0525 152.8718,114.1645 152.8718,122.3885 L152.8718,164.9625 Z M137.7938,213.1345 L137.7938,123.3565 C137.7938,121.5835 137.9528,119.8225 138.2768,118.0755 C138.5998,116.3275 139.4168,114.1105 140.7328,111.4235 C146.3688,99.9085 160.2128,96.8285 171.9378,96.8285 C174.9988,96.8285 177.9918,97.0975 180.9198,97.6355 C183.8448,98.1715 187.0398,99.3825 190.5048,101.2625 C193.9678,103.1445 196.9608,105.5905 199.4868,108.6005 C202.0098,111.6105 204.1168,115.8435 205.8098,121.3005 C207.5008,126.7565 208.3468,133.0605 208.3468,140.2095 C208.3468,148.3785 207.2318,155.3535 205.0028,161.1325 C202.7728,166.9105 199.6998,171.1975 195.7798,173.9935 C191.8588,176.7885 187.8718,178.7905 183.8168,180.0005 C179.7618,181.2095 175.2908,181.8155 170.4038,181.8155 C164.3158,181.8155 158.4728,181.0085 152.8718,179.3955 L152.8718,213.1345 L137.7938,213.1345 Z" id="Fill-3" fill="#2EA948"></path>
            <path d="M509.2166,180.2518 L509.2166,104.6188 C520.2236,99.1368 531.6316,96.3948 543.4446,96.3948 C552.3756,96.3948 559.7186,98.4638 565.4756,102.6028 C575.8446,98.4638 585.9186,96.3948 595.6936,96.3948 C606.1066,96.3948 614.2256,99.1088 620.0536,104.5388 C625.8806,109.9668 628.7926,117.5478 628.7926,127.2758 L628.7926,180.2518 L613.7156,180.2518 L613.7156,126.2288 C613.7156,121.4978 612.5566,117.6818 610.2406,114.7788 C607.9236,111.8768 603.3966,110.4248 596.6656,110.4248 C589.3976,110.4248 582.0226,111.9568 574.5396,115.0208 C575.8216,118.5138 576.4636,122.4378 576.4636,126.7938 L576.4636,127.2758 L576.4636,180.2518 L561.3856,180.2518 L561.3856,126.3898 C561.3856,121.5518 560.1066,117.7348 557.5476,114.9388 C554.9896,112.1438 549.9126,110.7478 542.3156,110.7478 C536.4436,110.7478 530.4376,111.5798 524.2946,113.2458 L524.2946,180.2518 L509.2166,180.2518 Z" id="Fill-5" fill="#2EA948"></path>
            <path d="M416.725,97.06 L416.725,172.339 C405.718,177.796 394.309,180.524 382.497,180.524 C373.566,180.524 366.223,178.465 360.466,174.346 C350.097,178.465 340.023,180.524 330.248,180.524 C319.835,180.524 311.716,177.823 305.888,172.419 C300.061,167.016 297.147,159.471 297.147,149.786 L297.147,97.06 L312.226,97.06 L312.226,150.83 C312.226,155.539 313.384,159.337 315.701,162.227 C318.018,165.115 322.545,166.56 329.276,166.56 C336.544,166.56 343.919,165.035 351.402,161.985 C350.119,158.509 349.478,154.603 349.478,150.268 L349.478,149.786 L349.478,97.06 L364.556,97.06 L364.556,150.67 C364.556,155.485 365.835,159.285 368.394,162.067 C370.952,164.849 376.029,166.239 383.626,166.239 C389.498,166.239 395.504,165.411 401.647,163.752 L401.647,97.06 L416.725,97.06 Z" id="Fill-7" fill="#2EA948"></path>
            <path d="M663.767,113.3103 C665.107,112.1313 666.95,111.4073 669.014,110.8363 C671.077,110.2513 673.54,109.9663 676.386,109.9663 C679.769,109.9663 686.218,110.9993 691.001,114.5873 C695.138,117.6903 695.865,124.7853 695.951,127.8953 C696.089,133.1783 691.183,134.2963 688.075,134.4473 C684.967,134.5833 656.992,135.4293 656.992,135.4293 C656.992,130.0213 657.03,119.2433 663.767,113.3103 M694.588,165.8393 C689.715,166.2743 684.542,166.4983 679.084,166.4983 C675.915,166.4983 673.067,166.2253 670.518,165.6783 C667.969,165.1303 665.757,164.1483 663.891,162.7193 C662.015,161.2883 660.535,159.3243 659.429,156.8383 C658.309,154.3523 657.65,151.1443 657.439,147.2273 C668.243,146.8023 678.838,146.8323 690.306,146.0373 C698.561,145.4663 711.778,144.0733 710.101,124.7123 C709.825,121.5283 709.133,118.1623 708.128,115.1253 C705.193,106.2603 698.182,100.2683 689.142,98.1923 C685.499,97.3593 681.249,96.9363 676.386,96.9363 C669.648,96.9363 663.966,97.7313 659.354,99.3103 C654.741,100.8903 651.023,103.3643 648.202,106.7343 C645.366,110.1023 643.34,114.4163 642.11,119.6753 C640.878,124.9233 640.268,131.2253 640.268,138.5733 C640.268,142.5783 640.494,146.3933 640.927,150.0123 C641.376,153.6183 642.11,156.9743 643.14,160.0703 C644.173,163.1663 645.541,165.9513 647.244,168.4373 C648.934,170.9113 651.06,173.0253 653.609,174.7913 C656.171,176.5443 659.167,177.8993 662.637,178.8453 C666.092,179.7763 670.083,180.2493 674.608,180.2493 C678.537,180.2493 682.143,180.1623 685.45,179.9753 C688.77,179.8023 691.854,179.5643 694.7,179.2923 C697.56,179.0183 700.208,178.7073 702.67,178.3593 C703.416,178.2593 705.093,178.0233 706.425,177.8493 L706.425,164.5833 C704.51,164.8193 702.682,165.0323 700.792,165.2293 C698.865,165.4283 696.85,165.6283 694.588,165.8393" id="Fill-9" fill="#2EA948"></path>
            <path d="M259.8343,167.0235 C253.7803,167.8255 232.9743,171.5785 233.1343,155.0225 C233.1923,149.1035 235.8353,144.2165 238.8253,142.3205 C241.8143,140.4235 250.1763,139.3645 263.0103,139.3645 C264.9153,139.3645 266.7543,139.3225 268.5453,139.3055 C268.5453,139.3055 268.6383,154.8465 268.6503,156.7505 C268.6603,158.6405 269.0383,165.8025 259.8343,167.0235 M283.9093,114.9645 C283.2373,112.3155 282.2303,110.0285 280.8753,108.0755 C279.5333,106.1115 277.8783,104.4835 275.9513,103.1525 C274.0123,101.8345 271.8493,100.7415 269.4623,99.9075 C267.0863,99.0625 264.5133,98.4405 261.7663,98.0175 C259.0183,97.6065 254.9893,97.0985 252.0053,97.0605 C246.0253,96.9865 239.9083,97.4705 234.7003,98.2285 C230.1853,98.8995 225.9843,99.5965 222.0933,100.3305 L222.0933,113.2855 C224.1443,112.9505 239.9173,110.6505 250.2163,110.4375 C253.3123,110.3745 256.7563,110.8605 258.9313,111.5575 C261.0943,112.2655 262.8843,113.3105 264.2773,114.7265 C265.6693,116.1455 266.6903,117.8975 267.3243,120.0115 C267.9703,122.1255 268.2813,124.5875 268.2813,127.4095 C263.2443,127.6205 258.4853,127.4895 253.6743,127.7435 C248.8483,127.9945 244.1973,128.4595 239.7093,129.1595 C235.7903,129.7485 232.4443,130.7375 229.6823,132.1245 C226.9083,133.4995 224.5043,135.6765 222.7643,137.8275 C221.0113,139.9655 219.7433,142.4655 218.9343,145.3365 C218.1273,148.2085 217.7283,151.4165 217.7283,154.9735 C217.7283,159.1385 218.2873,162.7935 219.4073,165.9505 C220.5383,169.1095 222.3163,171.7445 224.7663,173.8705 C227.2033,175.9965 230.3603,177.6005 234.2393,178.6575 C238.1053,179.7265 242.7933,180.2495 248.2893,180.2495 C255.8473,180.2495 262.6493,179.7025 268.6903,178.6085 C274.7333,177.5135 285.0783,176.3955 285.0783,159.2995 C285.0783,156.9005 285.0903,125.9295 285.0903,125.9295 C285.1153,121.2665 284.5683,117.5995 283.9093,114.9645" id="Fill-11" fill="#2EA948"></path>
            <path d="M301.81,206.8318 C301.81,207.8848 302.126,208.7468 302.757,209.4178 C303.389,210.0908 304.125,210.4268 304.968,210.4268 C305.809,210.4268 306.526,210.0908 307.117,209.4178 C307.708,208.7468 308.004,207.8808 308.004,206.8198 C308.004,205.7588 307.708,204.8768 307.117,204.1718 C306.526,203.4678 305.801,203.1158 304.943,203.1158 C304.085,203.1158 303.348,203.4718 302.733,204.1848 C302.117,204.8968 301.81,205.7788 301.81,206.8318 M304.105,213.5348 C302.559,213.5348 301.178,212.8798 299.964,211.5688 C298.749,210.2568 298.142,208.6288 298.142,206.6858 C298.142,204.7428 298.733,203.1518 299.915,201.9138 C301.097,200.6748 302.482,200.0548 304.069,200.0548 C305.656,200.0548 306.951,200.6138 307.955,201.7308 L307.955,195.3188 L311.598,195.3188 L311.598,213.3408 L307.955,213.3408 L307.955,211.6168 C306.935,212.8958 305.651,213.5348 304.105,213.5348" id="Fill-13" fill="#FFFFFF"></path>
            <path d="M322.8677,203.6986 C322.3657,203.2776 321.7547,203.0666 321.0337,203.0666 C320.3137,203.0666 319.6537,203.2856 319.0547,203.7226 C318.4547,204.1596 318.1067,204.7516 318.0097,205.4956 L323.7417,205.4956 C323.6607,204.7186 323.3697,204.1196 322.8677,203.6986 L322.8677,203.6986 Z M326.3647,211.4466 C324.8917,212.8396 323.1627,213.5356 321.1797,213.5356 C319.1957,213.5356 317.5567,212.9246 316.2617,211.7016 C314.9657,210.4796 314.3177,208.8396 314.3177,206.7826 C314.3177,204.7276 314.9777,203.0916 316.2977,201.8776 C317.6167,200.6616 319.1757,200.0546 320.9727,200.0546 C322.7707,200.0546 324.2967,200.5976 325.5517,201.6826 C326.8067,202.7676 327.4337,204.2566 327.4337,206.1516 L327.4337,208.0946 L317.9127,208.0946 C318.0257,208.8076 318.3987,209.3906 319.0307,209.8436 C319.6617,210.2966 320.3737,210.5236 321.1677,210.5236 C322.4467,210.5236 323.4997,210.0946 324.3257,209.2366 L326.3647,211.4466 Z" id="Fill-15" fill="#FFFFFF"></path>
            <mask id="mask-2" fill="white">
                <use xlink:href="#path-1"></use>
            </mask>
            <g id="Clip-18"></g>
            <polygon id="Fill-17" fill="#FFFFFF" mask="url(#mask-2)" points="330.058 213.341 333.701 213.341 333.701 195.319 330.058 195.319"></polygon>
            <path d="M337.15,213.341 L340.793,213.341 L340.793,200.274 L337.15,200.274 L337.15,213.341 Z M337.453,198.61 C337.04,198.197 336.834,197.691 336.834,197.092 C336.834,196.493 337.04,195.987 337.453,195.574 C337.866,195.161 338.372,194.955 338.971,194.955 C339.57,194.955 340.076,195.161 340.489,195.574 C340.902,195.987 341.109,196.493 341.109,197.092 C341.109,197.691 340.902,198.197 340.489,198.61 C340.076,199.023 339.57,199.23 338.971,199.23 C338.372,199.23 337.866,199.023 337.453,198.61 L337.453,198.61 Z" id="Fill-19" fill="#FFFFFF" mask="url(#mask-2)"></path>
            <polygon id="Fill-20" fill="#FFFFFF" mask="url(#mask-2)" points="347.7632 213.3411 342.5892 200.2501 346.3792 200.2501 349.6332 208.4831 352.8882 200.2501 356.6772 200.2501 351.5042 213.3411"></polygon>
            <path d="M366.2957,203.6986 C365.7937,203.2776 365.1827,203.0666 364.4617,203.0666 C363.7417,203.0666 363.0817,203.2856 362.4827,203.7226 C361.8827,204.1596 361.5347,204.7516 361.4377,205.4956 L367.1697,205.4956 C367.0887,204.7186 366.7977,204.1196 366.2957,203.6986 L366.2957,203.6986 Z M369.7927,211.4466 C368.3197,212.8396 366.5907,213.5356 364.6077,213.5356 C362.6237,213.5356 360.9847,212.9246 359.6897,211.7016 C358.3937,210.4796 357.7457,208.8396 357.7457,206.7826 C357.7457,204.7276 358.4057,203.0916 359.7257,201.8776 C361.0447,200.6616 362.6037,200.0546 364.4007,200.0546 C366.1987,200.0546 367.7247,200.5976 368.9797,201.6826 C370.2347,202.7676 370.8617,204.2566 370.8617,206.1516 L370.8617,208.0946 L361.3407,208.0946 C361.4537,208.8076 361.8267,209.3906 362.4587,209.8436 C363.0897,210.2966 363.8017,210.5236 364.5957,210.5236 C365.8747,210.5236 366.9277,210.0946 367.7537,209.2366 L369.7927,211.4466 Z" id="Fill-21" fill="#FFFFFF" mask="url(#mask-2)"></path>
            <path d="M380.3588,203.4797 C379.2738,203.4797 378.4638,203.8647 377.9298,204.6337 C377.3958,205.4027 377.1278,206.4187 377.1278,207.6817 L377.1278,213.3407 L373.4848,213.3407 L373.4848,200.2737 L377.1278,200.2737 L377.1278,201.9987 C377.5978,201.4637 378.1848,201.0107 378.8888,200.6377 C379.5938,200.2657 380.3098,200.0707 381.0388,200.0547 L381.0628,203.4797 L380.3588,203.4797 Z" id="Fill-22" fill="#FFFFFF" mask="url(#mask-2)"></path>
            <path d="M383.468,213.341 L387.111,213.341 L387.111,200.274 L383.468,200.274 L383.468,213.341 Z M383.771,198.61 C383.359,198.197 383.152,197.691 383.152,197.092 C383.152,196.493 383.359,195.987 383.771,195.574 C384.184,195.161 384.69,194.955 385.29,194.955 C385.888,194.955 386.395,195.161 386.807,195.574 C387.22,195.987 387.427,196.493 387.427,197.092 C387.427,197.691 387.22,198.197 386.807,198.61 C386.395,199.023 385.888,199.23 385.29,199.23 C384.69,199.23 384.184,199.023 383.771,198.61 L383.771,198.61 Z" id="Fill-23" fill="#FFFFFF" mask="url(#mask-2)"></path>
            <path d="M394.2031,206.0545 L394.2031,213.3415 L390.5601,213.3415 L390.5601,200.2735 L394.2031,200.2735 L394.2031,201.7305 C395.3041,200.6145 396.5431,200.0545 397.9191,200.0545 C399.2951,200.0545 400.4491,200.5405 401.3811,201.5125 C402.3111,202.4845 402.7771,203.7795 402.7771,205.3985 L402.7771,213.3415 L399.1341,213.3415 L399.1341,205.9575 C399.1341,203.9495 398.3971,202.9455 396.9241,202.9455 C396.1951,202.9455 395.5591,203.2095 395.0171,203.7345 C394.4741,204.2605 394.2031,205.0345 394.2031,206.0545" id="Fill-24" fill="#FFFFFF" mask="url(#mask-2)"></path>
            <path d="M415.2372,206.5279 C415.2372,205.4839 414.9452,204.6619 414.3622,204.0629 C413.7792,203.4639 413.0592,203.1639 412.2012,203.1639 C411.3422,203.1639 410.6012,203.4639 409.9782,204.0629 C409.3552,204.6619 409.0432,205.4799 409.0432,206.5159 C409.0432,207.5529 409.3472,208.3899 409.9542,209.0299 C410.5612,209.6699 411.3022,209.9889 412.1762,209.9889 C413.0512,209.9889 413.7792,209.6739 414.3622,209.0419 C414.9452,208.4109 415.2372,207.5729 415.2372,206.5279 M415.7472,211.1309 C414.5972,212.4099 413.1682,213.0499 411.4602,213.0499 C409.7512,213.0499 408.3102,212.4709 407.1362,211.3129 C405.9622,210.1549 405.3762,208.6089 405.3762,206.6739 C405.3762,204.7389 405.9792,203.1519 407.1852,201.9139 C408.3912,200.6749 409.7722,200.0549 411.3262,200.0549 C412.8812,200.0549 414.1682,200.6949 415.1882,201.9739 L415.1882,200.2499 L418.8322,200.2499 L418.8322,211.6409 C418.8322,212.8069 418.6292,213.8429 418.2242,214.7499 C417.8202,215.6569 417.2772,216.3689 416.5972,216.8869 C415.2532,217.9559 413.6662,218.4909 411.8372,218.4909 C410.8652,218.4909 409.8732,218.3319 408.8612,218.0169 C407.8492,217.7009 406.9622,217.2519 406.2012,216.6689 L407.6102,213.9239 C408.8082,214.8309 410.0752,215.2839 411.4112,215.2839 C412.7472,215.2839 413.8042,214.9519 414.5812,214.2889 C415.3582,213.6239 415.7472,212.5719 415.7472,211.1309" id="Fill-25" fill="#FFFFFF" mask="url(#mask-2)"></path>
            <path d="M440.6912,206.2974 L440.6912,213.3414 L437.0232,213.3414 L437.0232,206.2004 C437.0232,205.1644 436.8662,204.4034 436.5502,203.9164 C436.2342,203.4314 435.7242,203.1884 435.0192,203.1884 C434.3162,203.1884 433.6912,203.4514 433.1492,203.9774 C432.6072,204.5044 432.3362,205.2774 432.3362,206.2974 L432.3362,213.3414 L428.6932,213.3414 L428.6932,200.2734 L432.3362,200.2734 L432.3362,201.7554 C433.3392,200.6214 434.4892,200.0554 435.7842,200.0554 C436.6102,200.0554 437.3592,200.2974 438.0312,200.7834 C438.7032,201.2694 439.2092,201.8614 439.5492,202.5574 C440.0512,201.7634 440.7272,201.1474 441.5772,200.7104 C442.4272,200.2734 443.2812,200.0554 444.1402,200.0554 C445.6782,200.0554 446.9172,200.5124 447.8562,201.4274 C448.7952,202.3424 449.2652,203.6664 449.2652,205.3984 L449.2652,213.3414 L445.5972,213.3414 L445.5972,206.2004 C445.5972,204.1924 444.8612,203.1884 443.3872,203.1884 C442.6592,203.1884 442.0272,203.4514 441.4922,203.9774 C440.9582,204.5044 440.6912,205.2774 440.6912,206.2974" id="Fill-26" fill="#FFFFFF" mask="url(#mask-2)"></path>
            <path d="M455.4825,206.8071 C455.4825,207.8761 455.7865,208.7471 456.3935,209.4181 C457.0005,210.0901 457.7785,210.4271 458.7245,210.4271 C459.6725,210.4271 460.4495,210.0901 461.0565,209.4181 C461.6635,208.7471 461.9675,207.8761 461.9675,206.8071 C461.9675,205.7391 461.6635,204.8641 461.0565,204.1841 C460.4495,203.5041 459.6725,203.1641 458.7245,203.1641 C457.7785,203.1641 457.0005,203.5041 456.3935,204.1841 C455.7865,204.8641 455.4825,205.7391 455.4825,206.8071 M465.6355,206.8071 C465.6355,208.7021 464.9795,210.2971 463.6675,211.5921 C462.3565,212.8881 460.7085,213.5351 458.7245,213.5351 C456.7415,213.5351 455.0945,212.8881 453.7825,211.5921 C452.4705,210.2971 451.8145,208.7021 451.8145,206.8071 C451.8145,204.9131 452.4705,203.3141 453.7825,202.0101 C455.0945,200.7071 456.7415,200.0551 458.7245,200.0551 C460.7085,200.0551 462.3565,200.7071 463.6675,202.0101 C464.9795,203.3141 465.6355,204.9131 465.6355,206.8071" id="Fill-27" fill="#FFFFFF" mask="url(#mask-2)"></path>
            <path d="M475.2053,203.4797 C474.1203,203.4797 473.3103,203.8647 472.7763,204.6337 C472.2423,205.4027 471.9743,206.4187 471.9743,207.6817 L471.9743,213.3407 L468.3313,213.3407 L468.3313,200.2737 L471.9743,200.2737 L471.9743,201.9987 C472.4443,201.4637 473.0313,201.0107 473.7353,200.6377 C474.4403,200.2657 475.1563,200.0707 475.8853,200.0547 L475.9103,203.4797 L475.2053,203.4797 Z" id="Fill-28" fill="#FFFFFF" mask="url(#mask-2)"></path>
            <path d="M486.1356,203.6986 C485.6326,203.2776 485.0216,203.0666 484.3016,203.0666 C483.5806,203.0666 482.9216,203.2856 482.3216,203.7226 C481.7226,204.1596 481.3746,204.7516 481.2776,205.4956 L487.0096,205.4956 C486.9286,204.7186 486.6366,204.1196 486.1356,203.6986 L486.1356,203.6986 Z M489.6336,211.4466 C488.1586,212.8396 486.4306,213.5356 484.4476,213.5356 C482.4636,213.5356 480.8246,212.9246 479.5286,211.7016 C478.2336,210.4796 477.5856,208.8396 477.5856,206.7826 C477.5856,204.7276 478.2446,203.0916 479.5656,201.8776 C480.8846,200.6616 482.4436,200.0546 484.2406,200.0546 C486.0386,200.0546 487.5646,200.5976 488.8196,201.6826 C490.0736,202.7676 490.7016,204.2566 490.7016,206.1516 L490.7016,208.0946 L481.1806,208.0946 C481.2936,208.8076 481.6656,209.3906 482.2976,209.8436 C482.9286,210.2966 483.6416,210.5236 484.4346,210.5236 C485.7136,210.5236 486.7666,210.0946 487.5926,209.2366 L489.6336,211.4466 Z" id="Fill-29" fill="#FFFFFF" mask="url(#mask-2)"></path>
            <path d="M504.0841,202.8965 L504.0841,208.7505 C504.0841,209.2525 504.2131,209.6455 504.4721,209.9285 C504.7311,210.2115 505.0391,210.3535 505.3961,210.3535 C506.0761,210.3535 506.6501,210.0465 507.1201,209.4305 L508.4801,211.9805 C507.3461,213.0165 506.1521,213.5355 504.8981,213.5355 C503.6421,213.5355 502.5821,213.1225 501.7161,212.2965 C500.8491,211.4705 500.4161,210.3455 500.4161,208.9205 L500.4161,202.8965 L498.8861,202.8965 L498.8861,200.2735 L500.4161,200.2735 L500.4161,196.3635 L504.0841,196.3635 L504.0841,200.2735 L507.2411,200.2735 L507.2411,202.8965 L504.0841,202.8965 Z" id="Fill-30" fill="#FFFFFF" mask="url(#mask-2)"></path>
            <path d="M514.0661,206.2974 L514.0661,213.3414 L510.4231,213.3414 L510.4231,195.3194 L514.0661,195.3194 L514.0661,201.7314 C515.1671,200.6144 516.4021,200.0554 517.7701,200.0554 C519.1381,200.0554 520.2921,200.5404 521.2311,201.5124 C522.1701,202.4844 522.6401,203.7794 522.6401,205.3984 L522.6401,213.3414 L518.9971,213.3414 L518.9971,206.2004 C518.9971,204.1924 518.2601,203.1884 516.7861,203.1884 C516.0581,203.1884 515.4221,203.4514 514.8801,203.9774 C514.3371,204.5044 514.0661,205.2774 514.0661,206.2974" id="Fill-31" fill="#FFFFFF" mask="url(#mask-2)"></path>
            <path d="M533.3759,208.3617 L533.3759,207.7307 L531.0929,207.7307 C529.6359,207.7307 528.9069,208.1837 528.9069,209.0907 C528.9069,209.5607 529.0809,209.9207 529.4289,210.1717 C529.7769,210.4227 530.2749,210.5487 530.9229,210.5487 C531.5699,210.5487 532.1409,210.3497 532.6349,209.9527 C533.1289,209.5557 533.3759,209.0257 533.3759,208.3617 L533.3759,208.3617 Z M537.0439,213.3407 L533.6189,213.3407 L533.6189,211.7627 C532.6799,212.9447 531.5179,213.5357 530.1339,213.5357 C528.7489,213.5357 527.5869,213.1347 526.6479,212.3337 C525.7089,211.5317 525.2389,210.4627 525.2389,209.1267 C525.2389,207.7907 525.7249,206.7917 526.6959,206.1277 C527.6679,205.4637 528.9959,205.1317 530.6799,205.1317 L533.4009,205.1317 L533.4009,205.0587 C533.4009,203.6657 532.6639,202.9697 531.1899,202.9697 C530.5579,202.9697 529.8909,203.0957 529.1859,203.3457 C528.4819,203.5977 527.8869,203.9087 527.4009,204.2807 L525.7739,201.9247 C527.4899,200.6787 529.4489,200.0547 531.6509,200.0547 C533.2379,200.0547 534.5339,200.4527 535.5379,201.2457 C536.5419,202.0387 537.0439,203.2937 537.0439,205.0107 L537.0439,213.3407 Z" id="Fill-32" fill="#FFFFFF" mask="url(#mask-2)"></path>
            <path d="M544.0138,206.0545 L544.0138,213.3415 L540.3708,213.3415 L540.3708,200.2735 L544.0138,200.2735 L544.0138,201.7305 C545.1148,200.6145 546.3538,200.0545 547.7298,200.0545 C549.1058,200.0545 550.2598,200.5405 551.1918,201.5125 C552.1228,202.4845 552.5878,203.7795 552.5878,205.3985 L552.5878,213.3415 L548.9448,213.3415 L548.9448,205.9575 C548.9448,203.9495 548.2078,202.9455 546.7338,202.9455 C546.0058,202.9455 545.3698,203.2095 544.8278,203.7345 C544.2848,204.2605 544.0138,205.0345 544.0138,206.0545" id="Fill-33" fill="#FFFFFF" mask="url(#mask-2)"></path>
            <path d="M563.8456,198.6101 C563.4326,198.1971 563.2256,197.6911 563.2256,197.0921 C563.2256,196.4931 563.4326,195.9861 563.8456,195.5731 C564.2586,195.1601 564.7646,194.9551 565.3636,194.9551 C565.9626,194.9551 566.4686,195.1601 566.8816,195.5731 C567.2946,195.9861 567.5006,196.4931 567.5006,197.0921 C567.5006,197.6911 567.2946,198.1971 566.8816,198.6101 C566.4686,199.0231 565.9626,199.2301 565.3636,199.2301 C564.7646,199.2301 564.2586,199.0231 563.8456,198.6101 M563.5416,213.5841 L563.5416,200.2501 L567.1856,200.2501 L567.1856,213.8751 C567.1856,215.3001 566.7516,216.4251 565.8856,217.2521 C565.0186,218.0781 563.9586,218.4911 562.7036,218.4911 C561.4486,218.4911 560.2546,217.9721 559.1216,216.9361 L560.7976,214.2401 C561.2836,214.8071 561.8256,215.0901 562.4246,215.0901 C562.7476,215.0901 563.0156,214.9641 563.2256,214.7131 C563.4366,214.4621 563.5416,214.0861 563.5416,213.5841" id="Fill-34" fill="#FFFFFF" mask="url(#mask-2)"></path>
            <path d="M579.0624,207.3175 L579.0624,200.2735 L582.7304,200.2735 L582.7304,213.3415 L579.0624,213.3415 L579.0624,211.6165 C578.1554,212.8955 576.9854,213.5355 575.5524,213.5355 C574.1194,213.5355 572.9174,213.0855 571.9454,212.1875 C570.9734,211.2885 570.4884,209.9575 570.4884,208.1915 L570.4884,200.2735 L574.1554,200.2735 L574.1554,207.3905 C574.1554,209.3985 574.8924,210.4015 576.3664,210.4015 C577.0944,210.4015 577.7254,210.1395 578.2604,209.6135 C578.7944,209.0865 579.0624,208.3215 579.0624,207.3175" id="Fill-35" fill="#FFFFFF" mask="url(#mask-2)"></path>
            <path d="M596.0154,209.2728 C596.0154,210.5598 595.5424,211.5928 594.5944,212.3698 C593.6474,213.1468 592.4454,213.5348 590.9884,213.5348 C590.0154,213.5348 589.0044,213.3608 587.9514,213.0128 C586.8984,212.6648 585.9514,212.1508 585.1094,211.4708 L586.7134,209.1878 C588.0724,210.2408 589.5224,210.7668 591.0604,210.7668 C591.5304,210.7668 591.9024,210.6738 592.1774,210.4868 C592.4524,210.3018 592.5904,210.0538 592.5904,209.7458 C592.5904,209.4388 592.4004,209.1548 592.0194,208.8958 C591.6394,208.6378 591.0884,208.3938 590.3684,208.1678 C589.6474,207.9408 589.0974,207.7468 588.7164,207.5848 C588.3354,207.4228 587.9024,207.1888 587.4174,206.8808 C586.4294,206.2648 585.9354,205.3548 585.9354,204.1478 C585.9354,202.9418 586.4214,201.9588 587.3934,201.1968 C588.3644,200.4358 589.6194,200.0548 591.1574,200.0548 C592.6954,200.0548 594.2344,200.5738 595.7724,201.6098 L594.4124,204.0378 C593.2794,203.2618 592.1494,202.8728 591.0244,202.8728 C589.8984,202.8728 589.3364,203.1808 589.3364,203.7948 C589.3364,204.1358 589.5134,204.4028 589.8704,204.5978 C590.2264,204.7918 590.8174,205.0178 591.6434,205.2768 C592.4694,205.5368 593.0564,205.7348 593.4044,205.8718 C593.7524,206.0108 594.1694,206.2248 594.6554,206.5158 C595.5624,207.0668 596.0154,207.9858 596.0154,209.2728" id="Fill-36" fill="#FFFFFF" mask="url(#mask-2)"></path>
            <path d="M603.0592,202.8965 L603.0592,208.7505 C603.0592,209.2525 603.1882,209.6455 603.4472,209.9285 C603.7062,210.2115 604.0142,210.3535 604.3712,210.3535 C605.0512,210.3535 605.6252,210.0465 606.0952,209.4305 L607.4552,211.9805 C606.3212,213.0165 605.1272,213.5355 603.8732,213.5355 C602.6172,213.5355 601.5572,213.1225 600.6912,212.2965 C599.8242,211.4705 599.3912,210.3455 599.3912,208.9205 L599.3912,202.8965 L597.8612,202.8965 L597.8612,200.2735 L599.3912,200.2735 L599.3912,196.3635 L603.0592,196.3635 L603.0592,200.2735 L606.2162,200.2735 L606.2162,202.8965 L603.0592,202.8965 Z" id="Fill-37" fill="#FFFFFF" mask="url(#mask-2)"></path>
            <path d="M627.4567,199.8345 C626.7537,199.2455 625.8977,198.9495 624.8877,198.9495 C623.8787,198.9495 622.9547,199.2555 622.1157,199.8685 C621.2757,200.4815 620.7887,201.3085 620.6527,202.3525 L628.6817,202.3525 C628.5677,201.2635 628.1597,200.4245 627.4567,199.8345 L627.4567,199.8345 Z M632.3557,210.6875 C630.2917,212.6385 627.8707,213.6135 625.0927,213.6135 C622.3137,213.6135 620.0167,212.7575 618.2037,211.0445 C616.3877,209.3325 615.4807,207.0365 615.4807,204.1545 C615.4807,201.2745 616.4047,198.9835 618.2547,197.2825 C620.1017,195.5815 622.2857,194.7315 624.8027,194.7315 C627.3207,194.7315 629.4587,195.4915 631.2167,197.0105 C632.9737,198.5305 633.8527,200.6175 633.8527,203.2705 L633.8527,205.9925 L620.5167,205.9925 C620.6747,206.9905 621.1967,207.8075 622.0817,208.4425 C622.9657,209.0775 623.9637,209.3945 625.0757,209.3945 C626.8667,209.3945 628.3417,208.7945 629.4977,207.5915 L632.3557,210.6875 Z" id="Fill-38" fill="#FFFFFF" mask="url(#mask-2)"></path>
            <path d="M640.4791,206.0545 L640.4791,213.3415 L636.8361,213.3415 L636.8361,200.2735 L640.4791,200.2735 L640.4791,201.7305 C641.5801,200.6145 642.8191,200.0545 644.1951,200.0545 C645.5711,200.0545 646.7251,200.5405 647.6571,201.5125 C648.5881,202.4845 649.0531,203.7795 649.0531,205.3985 L649.0531,213.3415 L645.4101,213.3415 L645.4101,205.9575 C645.4101,203.9495 644.6731,202.9455 643.1991,202.9455 C642.4711,202.9455 641.8351,203.2095 641.2931,203.7345 C640.7501,204.2605 640.4791,205.0345 640.4791,206.0545" id="Fill-39" fill="#FFFFFF" mask="url(#mask-2)"></path>
            <path d="M660.1779,203.6986 C659.6749,203.2776 659.0639,203.0666 658.3439,203.0666 C657.6229,203.0666 656.9639,203.2856 656.3639,203.7226 C655.7649,204.1596 655.4169,204.7516 655.3199,205.4956 L661.0519,205.4956 C660.9709,204.7186 660.6789,204.1196 660.1779,203.6986 L660.1779,203.6986 Z M663.6749,211.4466 C662.2009,212.8396 660.4729,213.5356 658.4899,213.5356 C656.5059,213.5356 654.8669,212.9246 653.5709,211.7016 C652.2759,210.4796 651.6279,208.8396 651.6279,206.7826 C651.6279,204.7276 652.2869,203.0916 653.6079,201.8776 C654.9269,200.6616 656.4859,200.0546 658.2829,200.0546 C660.0809,200.0546 661.6069,200.5976 662.8619,201.6826 C664.1159,202.7676 664.7439,204.2566 664.7439,206.1516 L664.7439,208.0946 L655.2229,208.0946 C655.3349,208.8076 655.7079,209.3906 656.3399,209.8436 C656.9709,210.2966 657.6839,210.5236 658.4769,210.5236 C659.7559,210.5236 660.8089,210.0946 661.6349,209.2366 L663.6749,211.4466 Z" id="Fill-40" fill="#FFFFFF" mask="url(#mask-2)"></path>
            <path d="M674.2406,203.4797 C673.1556,203.4797 672.3456,203.8647 671.8116,204.6337 C671.2776,205.4027 671.0096,206.4187 671.0096,207.6817 L671.0096,213.3407 L667.3666,213.3407 L667.3666,200.2737 L671.0096,200.2737 L671.0096,201.9987 C671.4796,201.4637 672.0666,201.0107 672.7706,200.6377 C673.4756,200.2657 674.1916,200.0707 674.9206,200.0547 L674.9456,203.4797 L674.2406,203.4797 Z" id="Fill-41" fill="#FFFFFF" mask="url(#mask-2)"></path>
            <path d="M686.5067,206.5279 C686.5067,205.4839 686.2147,204.6619 685.6317,204.0629 C685.0497,203.4639 684.3287,203.1639 683.4697,203.1639 C682.6117,203.1639 681.8717,203.4639 681.2477,204.0629 C680.6247,204.6619 680.3127,205.4799 680.3127,206.5159 C680.3127,207.5529 680.6157,208.3899 681.2237,209.0299 C681.8317,209.6699 682.5717,209.9889 683.4457,209.9889 C684.3197,209.9889 685.0497,209.6739 685.6317,209.0419 C686.2147,208.4109 686.5067,207.5729 686.5067,206.5279 M687.0167,211.1309 C685.8667,212.4099 684.4377,213.0499 682.7297,213.0499 C681.0207,213.0499 679.5797,212.4709 678.4067,211.3129 C677.2327,210.1549 676.6457,208.6089 676.6457,206.6739 C676.6457,204.7389 677.2487,203.1519 678.4547,201.9139 C679.6607,200.6749 681.0417,200.0549 682.5957,200.0549 C684.1507,200.0549 685.4377,200.6949 686.4577,201.9739 L686.4577,200.2499 L690.1007,200.2499 L690.1007,211.6409 C690.1007,212.8069 689.8987,213.8429 689.4937,214.7499 C689.0897,215.6569 688.5467,216.3689 687.8667,216.8869 C686.5217,217.9559 684.9357,218.4909 683.1057,218.4909 C682.1347,218.4909 681.1417,218.3319 680.1307,218.0169 C679.1187,217.7009 678.2317,217.2519 677.4717,216.6689 L678.8797,213.9239 C680.0777,214.8309 681.3457,215.2839 682.6817,215.2839 C684.0167,215.2839 685.0737,214.9519 685.8507,214.2889 C686.6277,213.6239 687.0167,212.5719 687.0167,211.1309" id="Fill-42" fill="#FFFFFF" mask="url(#mask-2)"></path>
            <path d="M695.808,218.4907 C694.529,218.4907 693.322,217.9717 692.189,216.9357 L693.84,214.2397 C694.456,214.8387 695.087,215.1387 695.735,215.1387 C696.076,215.1387 696.366,214.9727 696.609,214.6407 C696.853,214.3087 696.974,213.9557 696.974,213.5837 C696.974,213.2117 695.29,208.7747 691.922,200.2737 L695.808,200.2737 L698.99,208.4107 L702.172,200.2737 L706.058,200.2737 L699.986,215.6727 C699.63,216.5637 699.075,217.2557 698.322,217.7497 C697.569,218.2437 696.732,218.4907 695.808,218.4907" id="Fill-43" fill="#FFFFFF" mask="url(#mask-2)"></path>
        </g>
    </g>
</svg>